<svg height='300px' width='300px'  fill="#000000" xmlns="http://www.w3.org/2000/svg" xmlns:xlink="http://www.w3.org/1999/xlink" version="1.1" x="0px" y="0px" viewBox="0 0 52 52" enable-background="new 0 0 52 52" xml:space="preserve"><g><g><rect x="25.0004883" y="29" width="2" height="15"></rect></g><g><path d="M37.0004883,50h-22c-0.5527344,0-1-0.4477539-1-1v-3c0-0.4833984,0.3457031-0.8974609,0.8212891-0.9838867l11-2    c0.1152344-0.0205078,0.234375-0.0209961,0.3496094-0.0014648l11,1.9042969    c0.4794922,0.0830078,0.8291016,0.4990234,0.8291016,0.9853516V49C38.0004883,49.5522461,37.5532227,50,37.0004883,50z     M16.0004883,48h20v-1.2539063l-9.9960938-1.7304688l-10.0039063,1.8188477V48z"></path></g><g><path d="M21.0004883,9.9990234c-0.2558594,0-0.5117188-0.0976563-0.7070313-0.2929688L14.5864258,4h-2.5859375    c-0.5527344,0-1-0.4477539-1-1s0.4472656-1,1-1h3c0.265625,0,0.5195313,0.1054688,0.7070313,0.2929688l6,5.9990234    c0.390625,0.3901367,0.390625,1.0234375,0,1.4140625C21.512207,9.9013672,21.2563477,9.9990234,21.0004883,9.9990234z"></path></g><g><path d="M26.0014648,30c-0.2744141,0-0.5361328-0.1123047-0.7246094-0.3110352l-11.4003906-12    c-0.2753906-0.2900391-0.3515625-0.7163086-0.1943359-1.0834961C13.840332,16.2382813,14.2016602,16,14.6010742,16h22.7988281    c0.3994141,0,0.7607422,0.2382813,0.9189453,0.6054688c0.1572266,0.3671875,0.0810547,0.793457-0.1943359,1.0830078    l-11.3984375,12C26.5375977,29.887207,26.2758789,30,26.0014648,30z M16.9301758,18l9.0712891,9.5478516L35.0708008,18H16.9301758    z"></path></g><g><path d="M37.3999023,18H14.6010742c-0.2744141,0-0.5361328-0.1123047-0.7246094-0.3110352L6.2749023,9.6884766    C5.9995117,9.3984375,5.9233398,8.9726563,6.0805664,8.6049805C6.2387695,8.237793,6.6000977,7.9995117,6.9995117,7.9995117    h38.0009766c0.3994141,0,0.7607422,0.2382813,0.9189453,0.6054688c0.1572266,0.3671875,0.0810547,0.793457-0.1943359,1.0834961    l-7.6005859,8.0004883C37.9360352,17.8876953,37.6743164,18,37.3999023,18z M15.0307617,16h21.9394531l5.7011719-6.0004883    H9.3286133L15.0307617,16z"></path></g></g></svg>